<?xml version="1.0" encoding="UTF-8"?>
<svg width="752pt" height="752pt" version="1.1" viewBox="0 0 752 752" xmlns="http://www.w3.org/2000/svg">
 <g>
  <path d="m374.1 149.58c-132.02-7.3984-216.66 124.29-132.59 294.2 18.93 38.246 43.445 73.66 67.156 107.91 6.0586 8.7539 12.406 17.34 18.539 25.645 6.0742 8.2227 12.355 16.719 18.289 25.297 1.2109 1.7422 3.1406 2.8516 5.2539 3 4.7695 0.34766 9.6328 0.49219 14.465 0.49219 4.8398 0 31.414-0.63281 34.746-2.457 0.48828-0.26953 1.9492-1.4922 2.4258-2.1602 72.949-105.79 165.84-218.54 135.97-340.77-17.836-73.031-83.461-130.21-164.26-111.16zm-103.99 46.637c0.3125 0.21094 0.64062 0.40234 1.0234 0.5 7.4375 1.1797 15.047 6.2109 16.492 0.66797 1.3594-5.2422-6.8945-4.8594-10.801-6.4375 3.8945-2.8398 8.0117-5.5 12.344-7.9492 1.1055 0.82422-0.50391-0.14844 7.7188 3.3945 4.2695 1.8008 6.9883-4.6992 2.6914-6.4766l-2.5078-1.043c10.672-5.1641 22.281-9.1797 34.359-11.824-42.578 25.582-67.789 69-76.883 116.96-1.793-1.8438-1.8398-0.6875-29.406-2.168 1-5.5078 2.2422-10.902 3.7227-16.199 0.70312 0.085937 19.719 2.4453 18.504 2.2969 1.875 0 3.4297-1.4805 3.5-3.3711 0.16016-4.1602-3.7227-3.5156-14.121-4.9531-2.1172-0.29297-4.1406-0.57031-5.9688-0.80469 2.2578-6.9766 5.0391-13.633 8.1133-20.078 0.71875 0.070313 21.312 3.9922 18.867 3.4805 1.8477 0 3.3945-1.4414 3.4961-3.3086 0.24219-4.25-3.9258-3.5469-12.336-5.3906-2.4609-0.53906-4.7891-1.043-6.7969-1.3906 3.3164-6.1797 7.0781-11.961 11.141-17.449 15.656 3.1523 14.996 3.1172 15.707 3.1172 4.1992 0 4.8281-6.1055 0.69531-6.9453l-11.652-2.3633c0.33984-0.40234 0.625-0.86328 0.96875-1.2617 3.3281-3.8906 7.0742-7.5469 11.129-11zm-17.922 237.27c5.2773-1.2695 13.219-3.1289 15.402-3.7109 4.4766-1.1953 2.6875-7.9688-1.8086-6.7812-2.2812 0.60938-11.461 2.75-16.629 4.0078-2.9062-6.3477-5.6484-12.66-8.0898-18.918 7.0586-1.5312 15.684-3.5 18.645-4.0469 4.5781-0.83984 3.2891-7.7461-1.2617-6.8984-3.2031 0.58984-13.711 2.9844-19.836 4.2969-2.9688-8.1094-5.6328-16.156-7.8047-24.09 1.6914-0.22656 3.8594-0.46484 5.6797-0.65625 5.6367-0.60938 13.09-0.46875 11.621-5.6211-0.96094-3.3672-2.7734-2.9336-18.984-0.56641-1.7266-7.0156-3.1992-13.969-4.293-20.828 2.3164-0.070313 5.1914-0.13672 8.1445-0.20703 9.0117-0.21094 15.535 0.80859 15.258-4.0508-0.23828-4.332-4.3867-3.2227-15.418-2.9688-3.2891 0.078125-6.4961 0.15625-8.9375 0.23438-1.3008-10.125-1.7109-16.898-1.8359-23.773 2.3438-0.27344 5.7031-0.36328 9.0078-0.44141 6.6992-0.15234 14.051 0.47266 13.355-4.5156-0.26562-1.918-2.0586-3.2461-3.957-2.9961-2.3398 0.32812-6.0117 0.41406-9.5664 0.5-3.2344 0.074219-6.1836 0.18359-8.7031 0.42188 0.14844-7.7891 0.63672-15.516 1.707-23.066 27.66 0.94531 27.934 1.582 29.641 0.78516-8.457 52.266 3.082 104.04 25.336 152.32-1.4648-0.64844-0.39062-0.84766-19.984 4.8945-1.6133-3.0781-3.25-6.1484-4.7891-9.2578-0.66797-1.3555-1.2461-2.7031-1.8984-4.0625zm46.402 78.648c10.164-1.5391 17.738-1.3594 16.871-6.3594 4.6328 6.8086 9.3789 13.543 14.266 20.168-1.0547-0.43359-19.215 2.5547-19.918 2.6953-3.7539-5.4609-7.4961-10.969-11.219-16.504zm-4.293-6.3945c-4.7305-7.1328-9.3672-14.352-13.906-21.625 4.6562-0.62891 11.145-1.4297 13.605-2.0898 4.4844-1.2148 2.6523-7.9922-1.8242-6.7773-2.2695 0.60547-10.715 1.5977-15.832 2.3516-4.9023-8.0508-9.625-16.195-14.117-24.453 17.555-5.0742 17.75-4.5781 18.527-7.0039 10.105 21.223 20.66 38.785 33.066 57.223-1.3086-0.76562-18.812 2.2422-19.52 2.375zm60.793 86.109c-1.3672-1.9492-2.7695-3.793-4.1562-5.7227 5.3789-0.23047 10.613-0.17188 13.102-0.82812 4.457-1.1914 2.7109-7.9531-1.8086-6.7812-1.5781 0.42578-12.887 0.4375-16.09 1.0078-4.8633-6.6523-2.5312-3.5898-10.145-13.93 10.875-2.6445 15.211-0.32812 15.211-5.1641 0-1.9375-1.5703-3.5078-3.5078-3.5078-4.8047 0-11.527 1.2422-16.152 2.625-8.1719-11.164-10.328-14.375-17.355-24.543 12.078-1.8555 18.039-1.5664 17.637-6.1602 16.125 21.652 33.359 42.383 50.508 62.672-8.7266 0.51562-18.125 0.80078-27.242 0.33203zm153.69-187.36c-22.652 54.676-59.305 104.02-112.74 181.5-29.645-35.023-59.785-71.297-83.715-110.91-118.09-195.4 8.918-343.66 122.94-311.21 42.434 12.066 77.551 51.395 89.473 100.18 12.945 53.004-1.5312 105.62-15.957 140.43z"/>
  <path d="m444.46 237.69c-36.664-27.73-98.848-25.816-122.87 41.566-40.625 113.88 80.09 185.11 140.34 107.5 13.488-17.371 21.023-40.328 21.227-64.633 0.27734-34.328-14.188-65.891-38.703-84.438zm-70.215 1.2305c0.53125 0.44922 1.0625 0.89844 1.7383 1.1836 30.934 13.066 52.805 46.918 52 80.492s-24.273 66.336-55.801 77.91c-0.19922 0.070313-0.33203 0.23047-0.52344 0.32031-67.203-32.344-49.387-141.44 2.5859-159.91zm17.285 165.92c5.4258-3.1289 10.52-6.7891 15.246-10.883 1.7891 1.8984 3.3477 0.78125 14.203 1.2227 0.71094-0.3125 3.5117-0.29297 3.5391-3.4766 0.046875-5.375-7.832-3.082-11.473-3.6133 4.1562-4.2578 7.918-8.8867 11.281-13.797 0.082031 0.003907 0.15625 0.042969 0.24219 0.042969 0.25781 0 15.254-1.457 15.512-1.4844 4.5781-0.44922 3.9922-7.375-0.67188-6.9844l-10.465 1.0156c2.7305-4.8086 5.082-9.8164 6.9961-15 8.3047-1.0625 16.832 1.6367 16.629-4.0781-0.0625-1.9336-1.7383-3.4375-3.625-3.3828l-10.68 0.36328c1.6016-5.5977 2.7383-11.328 3.3008-17.152 8.7266-1.5547 17.332 0.73828 16.848-4.957-0.48047-5.6328-8.6055-2.0312-16.422-2.1211 0.10156-5.1133-0.23828-10.207-0.96094-15.23l12.754-2.2227c1.9102-0.33594 3.1875-2.1523 2.8516-4.0625-0.33203-1.9062-2.1328-3.1797-4.0586-2.8516l-12.789 2.2305c-1.0703-4.8906-2.5195-9.6836-4.3047-14.352l9.8672-3.4336c1.8281-0.63281 2.7969-2.6328 2.1562-4.4648-0.63281-1.832-2.6328-2.8008-4.4688-2.1602l-10.285 3.582c-1.8477-3.9883-3.9727-7.8398-6.3125-11.559l5.6523-3.2305c1.6836-0.96094 2.2656-3.1055 1.3047-4.7891-0.96094-1.6797-3.1055-2.2656-4.7852-1.3008l-6.125 3.4961c-2.1797-2.9922-4.5195-5.8555-7.0039-8.5938l2.0508-0.73047c1.8281-0.64844 2.7773-2.6562 2.1289-4.4805-0.65234-1.8281-2.668-2.7773-4.4805-2.1289l-5.1133 1.8203c-4.1797-3.957-8.6914-7.5508-13.504-10.723 13.82 0.32031 27.941 4.8359 39.414 13.52 20.684 15.641 33.379 43.664 33.141 73.129-0.42969 53.453-39.352 87.66-77.59 82.82z"/>
 </g>
</svg>
